<?xml version="1.0" encoding="UTF-8"?>
<svg width="24px" height="24px" viewBox="0 0 24 24" version="1.1" xmlns="http://www.w3.org/2000/svg" xmlns:xlink="http://www.w3.org/1999/xlink">
    <title>IconComponent/ic_gallery_SettingsFilled</title>
    <g id="Symbols" stroke="none" stroke-width="1" fill="none" fill-rule="evenodd" fill-opacity="0.54">
        <g id="2)Ribbon/1)dropdown/galler/SettingsFilled" fill="#000000" fill-rule="nonzero">
            <path d="M19.14,12.9404 C19.18,12.6404 19.2,12.3304 19.2,12.0004 C19.2,11.6804 19.18,11.3604 19.13,11.0604 L21.16,9.48038999 C21.34,9.34038999 21.39,9.07038999 21.28,8.87038999 L19.36,5.55038997 C19.24,5.33038997 18.99,5.26038997 18.77,5.33038997 L16.38,6.29038998 C15.88,5.91038997 15.35,5.59038997 14.76,5.35038997 L14.4,2.81038996 C14.36,2.57038996 14.16,2.40038996 13.92,2.40038996 L10.08,2.40038996 C9.83998999,2.40038996 9.64998999,2.57038996 9.60998999,2.81038996 L9.24998999,5.35038997 C8.65998999,5.59038997 8.11998998,5.92038997 7.62998998,6.29038998 L5.23998997,5.33038997 C5.01998997,5.25038997 4.76998997,5.33038997 4.64998997,5.55038997 L2.73998996,8.87038999 C2.61998996,9.08038999 2.65998996,9.34038999 2.85998996,9.48038999 L4.88998997,11.0604 C4.83998997,11.3604 4.79998997,11.6904 4.79998997,12.0004 C4.79998997,12.3104 4.81998997,12.6404 4.86998997,12.9404 L2.83998996,14.5204 C2.65998996,14.6604 2.60998996,14.9304 2.71998996,15.1304 L4.63998997,18.4504 C4.75998997,18.6704 5.00998997,18.7404 5.22998997,18.6704 L7.61998998,17.7104 C8.11998998,18.0904 8.64998999,18.4104 9.23998999,18.6504 L9.59998999,21.1904 C9.64998999,21.4304 9.83998999,21.6004 10.08,21.6004 L13.92,21.6004 C14.16,21.6004 14.36,21.4304 14.39,21.1904 L14.75,18.6504 C15.34,18.4104 15.88,18.0904 16.37,17.7104 L18.76,18.6704 C18.98,18.7504 19.23,18.6704 19.35,18.4504 L21.27,15.1304 C21.39,14.9104 21.34,14.6604 21.15,14.5204 L19.14,12.9404 Z M12,15.6004 C10.02,15.6004 8.39998999,13.9804 8.39998999,12.0004 C8.39998999,10.0204 10.02,8.40038999 12,8.40038999 C13.98,8.40038999 15.6,10.0204 15.6,12.0004 C15.6,13.9804 13.98,15.6004 12,15.6004 Z" id="SettingsFilled"></path>
        </g>
    </g>
</svg>