<?xml version="1.0" encoding="UTF-8"?>
<svg width="24px" height="24px" viewBox="0 0 24 24" version="1.1" xmlns="http://www.w3.org/2000/svg" xmlns:xlink="http://www.w3.org/1999/xlink">
    <title>IconComponent/ic_gallery_PhotoCameraFilled</title>
    <g id="Symbols" stroke="none" stroke-width="1" fill="none" fill-rule="evenodd" fill-opacity="0.54">
        <g id="2)Ribbon/1)dropdown/galler/PhotoCamera" fill="#000000" fill-rule="nonzero">
            <path d="M15,1.99999996 L16.83,3.99999996 L20,3.99999996 C21.1,3.99999996 22,4.89999997 22,5.99999996 L22,5.99999996 L22,18 C22,19.1 21.1,20 20,20 L20,20 L3.99999996,20 C2.89999996,20 1.99999996,19.1 1.99999996,18 L1.99999996,18 L1.99999996,5.99999996 C1.99999996,4.89999997 2.89999996,3.99999996 3.99999996,3.99999996 L3.99999996,3.99999996 L7.16999998,3.99999996 L8.99999996,1.99999996 L15,1.99999996 Z M12,6.99999998 C9.23999999,6.99999998 6.99999998,9.23999999 6.99999998,12 C6.99999998,14.76 9.23999999,17 12,17 C14.76,17 17,14.76 17,12 C17,9.23999999 14.76,6.99999998 12,6.99999998 Z M12,8.79979999 C13.7674,8.79979999 15.2,10.2325 15.2,11.9998 C15.2,13.7671 13.7674,15.1998 12,15.1998 C10.2327,15.1998 8.80004999,13.7671 8.80004999,11.9998 C8.80004999,10.2325 10.2327,8.79979999 12,8.79979999 Z" id="PhotoCameraFilled"></path>
        </g>
    </g>
</svg>