<?xml version="1.0" encoding="UTF-8"?>
<svg width="24px" height="24px" viewBox="0 0 24 24" version="1.1" xmlns="http://www.w3.org/2000/svg" xmlns:xlink="http://www.w3.org/1999/xlink">
    <title>IconComponent/ic_gallery_CopyAllFilled</title>
    <g id="Symbols" stroke="none" stroke-width="1" fill="none" fill-rule="evenodd" fill-opacity="0.54">
        <g id="2)Ribbon/1)dropdown/galler/CopyAllFilled" fill="#000000" fill-rule="nonzero">
            <path d="M18,1.99999996 L8.99999998,1.99999996 C7.89999998,1.99999996 6.99999998,2.89999996 6.99999998,3.99999996 L6.99999998,16 C6.99999998,17.1 7.89999998,18 8.99999998,18 L18,18 C19.1,18 20,17.1 20,16 L20,3.99999996 C20,2.89999996 19.1,1.99999996 18,1.99999996 Z M18,16 L8.99999999,16 L8.99999999,3.99999997 L18,3.99999997 L18,16 Z M2.99999996,15 L2.99999996,13 L4.99999996,13 L4.99999996,15 L2.99999996,15 Z M2.99999996,9.49999999 L4.99999996,9.49999999 L4.99999996,11.5 L2.99999996,11.5 L2.99999996,9.49999999 Z M9.99999999,20 L12,20 L12,22 L9.99999999,22 L9.99999999,20 Z M2.99999996,18.5 L2.99999996,16.5 L4.99999996,16.5 L4.99999996,18.5 L2.99999996,18.5 Z M4.99999996,22 C3.89999997,22 2.99999996,21.1 2.99999996,20 L4.99999996,20 L4.99999996,22 Z M8.49999998,22 L6.49999998,22 L6.49999998,20 L8.49999998,20 L8.49999998,22 Z M13.5,22 L13.5,20 L15.5,20 C15.5,21.1 14.6,22 13.5,22 Z M4.99999996,5.99999998 L4.99999996,7.99999998 L2.99999996,7.99999998 C2.99999996,6.89999998 3.89999997,5.99999998 4.99999996,5.99999998 Z" id="CopyAllFilled"></path>
        </g>
    </g>
</svg>