<?xml version="1.0" encoding="UTF-8"?>
<svg width="24px" height="24px" viewBox="0 0 24 24" version="1.1" xmlns="http://www.w3.org/2000/svg" xmlns:xlink="http://www.w3.org/1999/xlink">
    <title>IconComponent/ic_gallery_PushPinFilled</title>
    <g id="Symbols" stroke="none" stroke-width="1" fill="none" fill-rule="evenodd" fill-opacity="0.54">
        <g id="2)Ribbon/1)dropdown/galler/PushPinFilled" fill="#000000" fill-rule="nonzero">
            <path d="M16,8.99999996 L16,3.99999996 L17,3.99999996 C17.55,3.99999996 18,3.54999996 18,2.99999996 C18,2.44999996 17.55,1.99999996 17,1.99999996 L6.99999997,1.99999996 C6.44999998,1.99999996 5.99999997,2.44999996 5.99999997,2.99999996 C5.99999997,3.54999996 6.44999998,3.99999996 6.99999997,3.99999996 L7.99999997,3.99999996 L7.99999997,8.99999996 C7.99999997,10.66 6.65999998,12 4.99999997,12 L4.99999997,14 L10.97,14 L10.97,21 L11.97,22 L12.97,21 L12.97,14 L19,14 L19,12 C17.34,12 16,10.66 16,8.99999996 Z" id="PushPinFilled"></path>
        </g>
    </g>
</svg>