<?xml version="1.0" encoding="UTF-8"?>
<svg width="24px" height="24px" viewBox="0 0 24 24" version="1.1" xmlns="http://www.w3.org/2000/svg" xmlns:xlink="http://www.w3.org/1999/xlink">
    <title>IconComponent/ic_gallery_ThumbUpAltFilled</title>
    <g id="Symbols" stroke="none" stroke-width="1" fill="none" fill-rule="evenodd" fill-opacity="0.54">
        <g id="2)Ribbon/1)dropdown/galler/ThumbUpAltFilled" fill="#000000" fill-rule="nonzero">
            <path d="M1.99999996,20 L3.99999996,20 C4.54999997,20 4.99999996,19.55 4.99999996,19 L4.99999996,9.99999999 C4.99999996,9.44999999 4.54999997,8.99999999 3.99999996,8.99999999 L1.99999996,8.99999999 L1.99999996,20 Z M21.83,12.88 C21.94,12.63 22,12.36 22,12.08 L22,11 C22,9.89999999 21.1,8.99999996 20,8.99999996 L14.5,8.99999996 L15.42,4.34999997 C15.47,4.12999997 15.44,3.88999997 15.34,3.68999997 C15.11,3.23999996 14.82,2.82999996 14.46,2.46999996 L14,1.99999996 L7.58999998,8.40999999 C7.20999998,8.78999999 6.99999998,9.29999999 6.99999998,9.82999999 L6.99999998,17.67 C6.99999998,18.95 8.04999998,20 9.33999999,20 L17.45,20 C18.15,20 18.81,19.63 19.17,19.03 L21.83,12.88 Z" id="ThumbUpAltFilled"></path>
        </g>
    </g>
</svg>