<?xml version="1.0" encoding="UTF-8"?>
<svg width="24px" height="24px" viewBox="0 0 24 24" version="1.1" xmlns="http://www.w3.org/2000/svg" xmlns:xlink="http://www.w3.org/1999/xlink">
    <title>IconComponent/ic_gallery_PrintFilled</title>
    <g id="Symbols" stroke="none" stroke-width="1" fill="none" fill-rule="evenodd" fill-opacity="0.54">
        <g id="2)Ribbon/1)dropdown/galler/PrintFilled" fill="#000000" fill-rule="nonzero">
            <path d="M19,7.99999998 L4.99999996,7.99999998 C3.33999996,7.99999998 1.99999996,9.33999999 1.99999996,11 L1.99999996,17 L5.99999996,17 L5.99999996,21 L18,21 L18,17 L22,17 L22,11 C22,9.33999999 20.66,7.99999998 19,7.99999998 Z M16,19 L7.99999998,19 L7.99999998,14 L16,14 L16,19 Z M19,12 C18.45,12 18,11.55 18,11 C18,10.45 18.45,9.99999999 19,9.99999999 C19.55,9.99999999 20,10.45 20,11 C20,11.55 19.55,12 19,12 Z M18,2.99999996 L5.99999998,2.99999996 L5.99999998,6.99999996 L18,6.99999996 L18,2.99999996 Z" id="PrintFilled"></path>
        </g>
    </g>
</svg>