<?xml version="1.0" encoding="UTF-8"?>
<svg width="24px" height="24px" viewBox="0 0 24 24" version="1.1" xmlns="http://www.w3.org/2000/svg" xmlns:xlink="http://www.w3.org/1999/xlink">
    <title>IconComponent/ic_gallery_PaidFilled</title>
    <g id="Symbols" stroke="none" stroke-width="1" fill="none" fill-rule="evenodd" fill-opacity="0.54">
        <g id="2)Ribbon/1)dropdown/galler/PaidFilled" fill="#000000" fill-rule="nonzero">
            <path d="M12,1.99999996 C6.47999998,1.99999996 1.99999996,6.47999998 1.99999996,12 C1.99999996,17.52 6.47999998,22 12,22 C17.52,22 22,17.52 22,12 C22,6.47999998 17.52,1.99999996 12,1.99999996 Z M12.88,17.76 L12.88,19 L11.13,19 L11.13,17.71 C10.39,17.53 8.73999999,16.94 8.10999998,14.75 L9.75999999,14.08 C9.81999999,14.3 10.34,16.17 12.16,16.17 C13.09,16.17 14.14,15.69 14.14,14.56 C14.14,13.6 13.44,13.1 11.86,12.53 C10.76,12.14 8.50999999,11.5 8.50999999,9.21999999 C8.50999999,9.11999999 8.51999999,6.81999998 11.13,6.25999998 L11.13,4.99999997 L12.88,4.99999997 L12.88,6.23999998 C14.72,6.55999998 15.39,8.02999998 15.54,8.46999999 L13.96,9.13999999 C13.85,8.78999999 13.37,7.79999998 12.06,7.79999998 C11.36,7.79999998 10.25,8.16999998 10.25,9.18999999 C10.25,10.14 11.11,10.5 12.89,11.09 C15.29,11.92 15.9,13.14 15.9,14.54 C15.9,17.17 13.4,17.67 12.88,17.76 Z" id="PaidFilled"></path>
        </g>
    </g>
</svg>