<?xml version="1.0" encoding="UTF-8"?>
<svg width="24px" height="24px" viewBox="0 0 24 24" version="1.1" xmlns="http://www.w3.org/2000/svg" xmlns:xlink="http://www.w3.org/1999/xlink">
    <title>IconComponent/ic_gallery_HelpOutlineFilled</title>
    <g id="Symbols" stroke="none" stroke-width="1" fill="none" fill-rule="evenodd" fill-opacity="0.54">
        <g id="2)Ribbon/1)dropdown/galler/HelpOutlineFilled" fill="#000000" fill-rule="nonzero">
            <path d="M11,18 L13,18 L13,16 L11,16 L11,18 Z M12,1.99999996 C6.47999998,1.99999996 1.99999996,6.47999998 1.99999996,12 C1.99999996,17.52 6.47999998,22 12,22 C17.52,22 22,17.52 22,12 C22,6.47999998 17.52,1.99999996 12,1.99999996 Z M12,20 C7.58999998,20 3.99999997,16.41 3.99999997,12 C3.99999997,7.58999998 7.58999998,3.99999997 12,3.99999997 C16.41,3.99999997 20,7.58999998 20,12 C20,16.41 16.41,20 12,20 Z M12,5.99999998 C9.78999999,5.99999998 7.99999998,7.78999998 7.99999998,9.99999998 L9.99999998,9.99999998 C9.99999998,8.89999999 10.9,7.99999998 12,7.99999998 C13.1,7.99999998 14,8.89999999 14,9.99999998 C14,12 11,11.75 11,15 L13,15 C13,12.75 16,12.5 16,9.99999998 C16,7.78999998 14.21,5.99999998 12,5.99999998 Z" id="HelpOutlineFilled"></path>
        </g>
    </g>
</svg>