<?xml version="1.0" encoding="UTF-8"?>
<svg width="24px" height="24px" viewBox="0 0 24 24" version="1.1" xmlns="http://www.w3.org/2000/svg" xmlns:xlink="http://www.w3.org/1999/xlink">
    <title>IconComponent/ic_gallery_ShoppingBasketFilled</title>
    <g id="Symbols" stroke="none" stroke-width="1" fill="none" fill-rule="evenodd" fill-opacity="0.54">
        <g id="2)Ribbon/1)dropdown/galler/ShoppingBasketFilled" fill="#000000" fill-rule="nonzero">
            <path d="M17.21,8.99952999 L12.83,2.43952996 C12.64,2.15952996 12.32,2.01952996 12,2.01952996 C11.68,2.01952996 11.36,2.15952996 11.17,2.44952996 L6.78999998,8.99952999 L1.99999995,8.99952999 C1.44999996,8.99952999 0.999999954,9.44952999 0.999999954,9.99952999 C0.999999954,10.0895 1.00999995,10.1795 1.03999995,10.2695 L3.57999996,19.5395 C3.80999997,20.3795 4.57999997,20.9995 5.49999995,20.9995 L18.5,20.9995 C19.42,20.9995 20.19,20.3795 20.43,19.5395 L22.97,10.2695 L23,9.99952999 C23,9.44952999 22.55,8.99952999 22,8.99952999 L17.21,8.99952999 Z M8.99999999,8.99952999 L12,4.59952997 L15,8.99952999 L8.99999999,8.99952999 Z M12,16.9995 C10.9,16.9995 9.99999999,16.0995 9.99999999,14.9995 C9.99999999,13.8995 10.9,12.9995 12,12.9995 C13.1,12.9995 14,13.8995 14,14.9995 C14,16.0995 13.1,16.9995 12,16.9995 Z" id="ShoppingBasketFilled"></path>
        </g>
    </g>
</svg>