<?xml version="1.0" encoding="UTF-8"?>
<svg width="24px" height="24px" viewBox="0 0 24 24" version="1.1" xmlns="http://www.w3.org/2000/svg" xmlns:xlink="http://www.w3.org/1999/xlink">
    <title>IconComponent/ic_gallery_Grid_3x3Filled</title>
    <g id="Symbols" stroke="none" stroke-width="1" fill="none" fill-rule="evenodd" fill-opacity="0.54">
        <g id="2)Ribbon/1)dropdown/galler/Grid_3x3Filled" fill="#000000" fill-rule="nonzero">
            <path d="M20,9.99999997 L20,7.99999997 L16,7.99999997 L16,3.99999997 L14,3.99999997 L14,7.99999997 L9.99999997,7.99999997 L9.99999997,3.99999997 L7.99999997,3.99999997 L7.99999997,7.99999997 L3.99999997,7.99999997 L3.99999997,9.99999997 L7.99999997,9.99999997 L7.99999997,14 L3.99999997,14 L3.99999997,16 L7.99999997,16 L7.99999997,20 L9.99999997,20 L9.99999997,16 L14,16 L14,20 L16,20 L16,16 L20,16 L20,14 L16,14 L16,9.99999997 L20,9.99999997 Z M14,14 L9.99999999,14 L9.99999999,9.99999999 L14,9.99999999 L14,14 Z" id="Grid_3x3Filled"></path>
        </g>
    </g>
</svg>