<?xml version="1.0" encoding="UTF-8"?>
<svg width="24px" height="24px" viewBox="0 0 24 24" version="1.1" xmlns="http://www.w3.org/2000/svg" xmlns:xlink="http://www.w3.org/1999/xlink">
    <title>IconComponent/ic_gallery_SaveFilled</title>
    <g id="Symbols" stroke="none" stroke-width="1" fill="none" fill-rule="evenodd" fill-opacity="0.54">
        <g id="2)Ribbon/1)dropdown/galler/SaveFilled" fill="#000000" fill-rule="nonzero">
            <path d="M17,2.99999996 L4.99999996,2.99999996 C3.88999997,2.99999996 2.99999996,3.89999997 2.99999996,4.99999996 L2.99999996,19 C2.99999996,20.1 3.88999997,21 4.99999996,21 L19,21 C20.1,21 21,20.1 21,19 L21,6.99999996 L17,2.99999996 Z M12,19 C10.34,19 8.99999999,17.66 8.99999999,16 C8.99999999,14.34 10.34,13 12,13 C13.66,13 15,14.34 15,16 C15,17.66 13.66,19 12,19 Z M15,8.99999997 L4.99999997,8.99999997 L4.99999997,4.99999997 L15,4.99999997 L15,8.99999997 Z" id="SaveFilled"></path>
        </g>
    </g>
</svg>