<?xml version="1.0" encoding="UTF-8"?>
<svg width="24px" height="24px" viewBox="0 0 24 24" version="1.1" xmlns="http://www.w3.org/2000/svg" xmlns:xlink="http://www.w3.org/1999/xlink">
    <title>IconComponent/ic_gallery_LocalMoviesFilled</title>
    <g id="Symbols" stroke="none" stroke-width="1" fill="none" fill-rule="evenodd" fill-opacity="0.54">
        <g id="2)Ribbon/1)dropdown/galler/LocalMoviesFilled" fill="#000000" fill-rule="nonzero">
            <path d="M18,2.99999996 L18,4.99999996 L16,4.99999996 L16,2.99999996 L7.99999997,2.99999996 L7.99999997,4.99999996 L5.99999997,4.99999996 L5.99999997,2.99999996 L3.99999997,2.99999996 L3.99999997,21 L5.99999997,21 L5.99999997,19 L7.99999997,19 L7.99999997,21 L16,21 L16,19 L18,19 L18,21 L20,21 L20,2.99999996 L18,2.99999996 Z M7.99999997,17 L5.99999997,17 L5.99999997,15 L7.99999997,15 L7.99999997,17 Z M7.99999997,13 L5.99999997,13 L5.99999997,11 L7.99999997,11 L7.99999997,13 Z M7.99999997,8.99999998 L5.99999997,8.99999998 L5.99999997,6.99999998 L7.99999997,6.99999998 L7.99999997,8.99999998 Z M18,17 L16,17 L16,15 L18,15 L18,17 Z M18,13 L16,13 L16,11 L18,11 L18,13 Z M18,8.99999998 L16,8.99999998 L16,6.99999998 L18,6.99999998 L18,8.99999998 Z" id="LocalMoviesFilled"></path>
        </g>
    </g>
</svg>