<?xml version="1.0" encoding="UTF-8"?>
<svg width="24px" height="24px" viewBox="0 0 24 24" version="1.1" xmlns="http://www.w3.org/2000/svg" xmlns:xlink="http://www.w3.org/1999/xlink">
    <title>IconComponent/ic_gallery_SdStorageFilled</title>
    <g id="Symbols" stroke="none" stroke-width="1" fill="none" fill-rule="evenodd" fill-opacity="0.54">
        <g id="2)Ribbon/1)dropdown/galler/SdStorage" fill="#000000" fill-rule="nonzero">
            <path d="M18,1.99999996 L9.99999997,1.99999996 L4.01999997,7.99999996 L3.99999997,20 C3.99999997,21.1 4.89999997,22 5.99999997,22 L18,22 C19.1,22 20,21.1 20,20 L20,3.99999996 C20,2.89999996 19.1,1.99999996 18,1.99999996 Z M12,7.99999997 L9.99999999,7.99999997 L9.99999999,3.99999997 L12,3.99999997 L12,7.99999997 Z M15,7.99999997 L13,7.99999997 L13,3.99999997 L15,3.99999997 L15,7.99999997 Z M18,7.99999997 L16,7.99999997 L16,3.99999997 L18,3.99999997 L18,7.99999997 Z" id="SdStorageFilled"></path>
        </g>
    </g>
</svg>