<?xml version="1.0" encoding="UTF-8"?>
<svg width="24px" height="24px" viewBox="0 0 24 24" version="1.1" xmlns="http://www.w3.org/2000/svg" xmlns:xlink="http://www.w3.org/1999/xlink">
    <title>IconComponent/ic_gallery_ThumbDownFilled</title>
    <g id="Symbols" stroke="none" stroke-width="1" fill="none" fill-rule="evenodd" fill-opacity="0.54">
        <g id="2)Ribbon/1)dropdown/galler/ThumbDownFilled" fill="#000000" fill-rule="nonzero">
            <path d="M15,2.99999996 L5.99999995,2.99999996 C5.16999997,2.99999996 4.45999997,3.49999996 4.15999997,4.21999997 L1.13999995,11.27 C1.04999995,11.5 0.999999954,11.74 0.999999954,12 L0.999999954,14 C0.999999954,15.1 1.89999996,16 2.99999995,16 L9.30999999,16 L8.35999998,20.57 L8.32999998,20.89 C8.32999998,21.3 8.49999995,21.68 8.76999999,21.95 L9.82999999,23 L16.42,16.41 C16.78,16.05 17,15.55 17,15 L17,4.99999996 C17,3.89999997 16.1,2.99999996 15,2.99999996 Z M19,2.99999996 L19,15 L23,15 L23,2.99999996 L19,2.99999996 Z" id="ThumbDownFilled"></path>
        </g>
    </g>
</svg>