<?xml version="1.0" encoding="UTF-8"?>
<svg width="24px" height="24px" viewBox="0 0 24 24" version="1.1" xmlns="http://www.w3.org/2000/svg" xmlns:xlink="http://www.w3.org/1999/xlink">
    <title>IconComponent/ic_gallery_HelpFilled</title>
    <g id="Symbols" stroke="none" stroke-width="1" fill="none" fill-rule="evenodd" fill-opacity="0.54">
        <g id="2)Ribbon/1)dropdown/galler/HelpFilled" fill="#000000" fill-rule="nonzero">
            <path d="M12,1.99999996 C6.47999998,1.99999996 1.99999996,6.47999998 1.99999996,12 C1.99999996,17.52 6.47999998,22 12,22 C17.52,22 22,17.52 22,12 C22,6.47999998 17.52,1.99999996 12,1.99999996 Z M13,19 L11,19 L11,17 L13,17 L13,19 Z M15.07,11.25 L14.17,12.17 C13.45,12.9 13,13.5 13,15 L11,15 L11,14.5 C11,13.4 11.45,12.4 12.17,11.67 L13.41,10.41 C13.78,10.05 14,9.54999999 14,8.99999997 C14,7.89999998 13.1,6.99999997 12,6.99999997 C10.9,6.99999997 9.99999998,7.89999998 9.99999998,8.99999997 L7.99999998,8.99999997 C7.99999998,6.78999998 9.78999999,4.99999997 12,4.99999997 C14.21,4.99999997 16,6.78999998 16,8.99999997 C16,9.87999999 15.64,10.68 15.07,11.25 Z" id="HelpFilled"></path>
        </g>
    </g>
</svg>