<?xml version="1.0" encoding="UTF-8"?>
<svg width="24px" height="24px" viewBox="0 0 24 24" version="1.1" xmlns="http://www.w3.org/2000/svg" xmlns:xlink="http://www.w3.org/1999/xlink">
    <title>IconComponent/ic_gallery_FastfoodFilled</title>
    <g id="Symbols" stroke="none" stroke-width="1" fill="none" fill-rule="evenodd" fill-opacity="0.54">
        <g id="2)Ribbon/1)dropdown/galler/FastfoodFilled" fill="#000000" fill-rule="nonzero">
            <path d="M18.06,22.99 L19.72,22.99 C20.56,22.99 21.25,22.35 21.35,21.53 L23,5.04999997 L18,5.04999997 L18,0.999999954 L16.03,0.999999954 L16.03,5.04999997 L11.06,5.04999997 L11.36,7.38999998 C13.07,7.85999998 14.67,8.70999999 15.63,9.64999999 C17.07,11.07 18.06,12.54 18.06,14.94 L18.06,22.99 Z M0.999999954,21.99 L0.999999954,21 L16.03,21 L16.03,21.99 C16.03,22.54 15.58,22.99 15.02,22.99 L2.00999996,22.99 C1.44999996,22.99 0.999999954,22.54 0.999999954,21.99 Z M16.03,14.99 C16.03,6.98999999 0.999999954,6.98999999 0.999999954,14.99 L16.03,14.99 Z M1.01999995,17 L16.02,17 L16.02,19 L1.01999995,19 L1.01999995,17 Z" id="FastfoodFilled"></path>
        </g>
    </g>
</svg>