<?xml version="1.0" encoding="UTF-8"?>
<svg width="24px" height="24px" viewBox="0 0 24 24" version="1.1" xmlns="http://www.w3.org/2000/svg" xmlns:xlink="http://www.w3.org/1999/xlink">
    <title>IconComponent/ic_gallery_KeyboardVoiceFilled</title>
    <g id="Symbols" stroke="none" stroke-width="1" fill="none" fill-rule="evenodd" fill-opacity="0.54">
        <g id="2)Ribbon/1)dropdown/galler/KeyboardVoiceFilled" fill="#000000" fill-rule="nonzero">
            <path d="M12,15 C13.66,15 14.99,13.66 14.99,12 L15,5.99999996 C15,4.33999997 13.66,2.99999996 12,2.99999996 C10.34,2.99999996 8.99999999,4.33999997 8.99999999,5.99999996 L8.99999999,12 C8.99999999,13.66 10.34,15 12,15 Z M17.3,12 C17.3,15 14.76,17.1 12,17.1 C9.23999999,17.1 6.69999998,15 6.69999998,12 L4.99999997,12 C4.99999997,15.42 7.71999998,18.23 11,18.72 L11,22 L13,22 L13,18.72 C16.28,18.24 19,15.42 19,12 L17.3,12 Z" id="KeyboardVoiceFilled"></path>
        </g>
    </g>
</svg>