<?xml version="1.0" encoding="UTF-8"?>
<svg width="24px" height="24px" viewBox="0 0 24 24" version="1.1" xmlns="http://www.w3.org/2000/svg" xmlns:xlink="http://www.w3.org/1999/xlink">
    <title>IconComponent/ic_gallery_WbSunnyFilled</title>
    <g id="Symbols" stroke="none" stroke-width="1" fill="none" fill-rule="evenodd" fill-opacity="0.54">
        <g id="2)Ribbon/1)dropdown/galler/WbSunnyFilled" fill="#000000" fill-rule="nonzero">
            <path d="M6.75999998,4.83979997 L4.95999997,3.04979996 L3.54999996,4.45979997 L5.33999997,6.24979998 L6.75999998,4.83979997 Z M3.99999995,10.4998 L0.999999954,10.4998 L0.999999954,12.4998 L3.99999995,12.4998 L3.99999995,10.4998 Z M13,0.549804952 L11,0.549804952 L11,3.49979996 L13,3.49979996 L13,0.549804952 Z M20.45,4.45979997 L19.04,3.04979996 L17.25,4.83979997 L18.66,6.24979998 L20.45,4.45979997 Z M17.24,18.1598 L19.03,19.9598 L20.44,18.5498 L18.64,16.7598 L17.24,18.1598 Z M20,10.4998 L20,12.4998 L23,12.4998 L23,10.4998 L20,10.4998 Z M12,5.49979997 C8.68999999,5.49979997 5.99999997,8.18979998 5.99999997,11.4998 C5.99999997,14.8098 8.68999999,17.4998 12,17.4998 C15.31,17.4998 18,14.8098 18,11.4998 C18,8.18979998 15.31,5.49979997 12,5.49979997 Z M11,22.4498 L13,22.4498 L13,19.4998 L11,19.4998 L11,22.4498 Z M3.54999996,18.5398 L4.95999997,19.9498 L6.74999998,18.1498 L5.33999997,16.7398 L3.54999996,18.5398 Z" id="WbSunnyFilled"></path>
        </g>
    </g>
</svg>