<?xml version="1.0" encoding="UTF-8"?>
<svg width="24px" height="24px" viewBox="0 0 24 24" version="1.1" xmlns="http://www.w3.org/2000/svg" xmlns:xlink="http://www.w3.org/1999/xlink">
    <title>IconComponent/ic_gallery_ZoomInFilled</title>
    <g id="Symbols" stroke="none" stroke-width="1" fill="none" fill-rule="evenodd" fill-opacity="0.54">
        <g id="2)Ribbon/1)dropdown/galler/ZoomIn" fill="#000000" fill-rule="nonzero">
            <path d="M9.49999996,2.99999996 C13.09,2.99999996 16,5.90999997 16,9.49999996 C16,11.11 15.41,12.59 14.43,13.73 L14.43,13.73 L14.71,14 L15.5,14 L20.49,19 L19,20.49 L14,15.5 L14,14.71 L13.73,14.43 C12.59,15.41 11.11,16 9.49999996,16 C5.90999997,16 2.99999996,13.09 2.99999996,9.49999996 C2.99999996,5.90999997 5.90999997,2.99999996 9.49999996,2.99999996 Z M9.49999997,4.99999997 C7.00999998,4.99999997 4.99999997,7.00999998 4.99999997,9.49999997 C4.99999997,11.99 7.00999998,14 9.49999997,14 C11.99,14 14,11.99 14,9.49999997 C14,7.00999998 11.99,4.99999997 9.49999997,4.99999997 Z M9.99999998,6.99999998 L9.99999998,8.99999998 L12,8.99999998 L12,9.99999998 L9.99999998,9.99999998 L9.99999998,12 L8.99999998,12 L8.99999998,9.99999998 L6.99999998,9.99999998 L6.99999998,8.99999998 L8.99999998,8.99999998 L8.99999998,6.99999998 L9.99999998,6.99999998 Z" id="ZoomInFilled"></path>
        </g>
    </g>
</svg>