<?xml version="1.0" encoding="UTF-8"?>
<svg width="24px" height="24px" viewBox="0 0 24 24" version="1.1" xmlns="http://www.w3.org/2000/svg" xmlns:xlink="http://www.w3.org/1999/xlink">
    <title>IconComponent/ic_gallery_MessageFilled</title>
    <g id="Symbols" stroke="none" stroke-width="1" fill="none" fill-rule="evenodd" fill-opacity="0.54">
        <g id="2)Ribbon/1)dropdown/galler/MessageFilled" fill="#000000" fill-rule="nonzero">
            <path d="M20,1.99999996 L3.99999996,1.99999996 C2.89999996,1.99999996 2.00999996,2.89999996 2.00999996,3.99999996 L1.99999996,22 L5.99999996,18 L20,18 C21.1,18 22,17.1 22,16 L22,3.99999996 C22,2.89999996 21.1,1.99999996 20,1.99999996 Z M18,14 L5.99999998,14 L5.99999998,12 L18,12 L18,14 Z M18,11 L5.99999998,11 L5.99999998,8.99999999 L18,8.99999999 L18,11 Z M18,7.99999998 L5.99999998,7.99999998 L5.99999998,5.99999998 L18,5.99999998 L18,7.99999998 Z" id="MessageFilled"></path>
        </g>
    </g>
</svg>