<?xml version="1.0" encoding="UTF-8"?>
<svg width="24px" height="24px" viewBox="0 0 24 24" version="1.1" xmlns="http://www.w3.org/2000/svg" xmlns:xlink="http://www.w3.org/1999/xlink">
    <title>IconComponent/ic_gallery_RestartAltFilled</title>
    <g id="Symbols" stroke="none" stroke-width="1" fill="none" fill-rule="evenodd" fill-opacity="0.54">
        <g id="2)Ribbon/1)dropdown/galler/RestartAlt" fill="#000000" fill-rule="nonzero">
            <path d="M12,1.99999996 L12,4.99999996 C16.42,4.99999996 20,8.57999999 20,13 C20,17.08 16.95,20.44 13,20.93 L13,20.93 L13,18.91 C15.83,18.43 18,15.97 18,13 C18,9.68999999 15.31,6.99999996 12,6.99999996 L12,6.99999996 L12,9.99999996 L7.99999998,5.99999996 L12,1.99999996 Z M6.33999998,7.33983998 L7.75999998,8.75983999 C6.66999998,9.84983999 5.99999997,11.3498 5.99999997,12.9998 C5.99999997,15.9698 8.16999998,18.4298 11,18.9098 L11,18.9098 L11,20.9298 C7.04999998,20.4398 3.99999997,17.0798 3.99999997,12.9998 C3.99999997,10.7898 4.89999997,8.78983999 6.33999998,7.33983998 L6.33999998,7.33983998 Z" id="RestartAltFilled"></path>
        </g>
    </g>
</svg>